<?xml version="1.0" encoding="utf-8"?>
<!-- Generator: Adobe Illustrator 22.0.1, SVG Export Plug-In . SVG Version: 6.00 Build 0)  -->
<svg version="1.1" id="Layer_1" xmlns="http://www.w3.org/2000/svg" xmlns:xlink="http://www.w3.org/1999/xlink" x="0px" y="0px"
	 viewBox="0 0 612 612" style="enable-background:new 0 0 612 612;" xml:space="preserve">
<style type="text/css">
	.st0{fill:#563D7C;}
	.st1{enable-background:new    ;}
	.st2{fill:#FFFFFF;}
</style>
<g id="solid" inkscape:version="0.48.1 r9760" sodipodi:docname="twitter_bootstrap_logo.svg" xmlns:cc="http://creativecommons.org/ns#" xmlns:dc="http://purl.org/dc/elements/1.1/" xmlns:inkscape="http://www.inkscape.org/namespaces/inkscape" xmlns:rdf="http://www.w3.org/1999/02/22-rdf-syntax-ns#" xmlns:sodipodi="http://sodipodi.sourceforge.net/DTD/sodipodi-0.dtd" xmlns:svg="http://www.w3.org/2000/svg">
	<path id="bg" class="st0" d="M586.7,488.3c0,50.9-42.1,92.6-93.6,92.6H118.9c-51.5,0-93.6-41.7-93.6-92.6V117.9
		c0-50.9,42.1-92.6,93.6-92.6h374.3c51.5,0,93.6,41.7,93.6,92.6V488.3z"/>
	<g id="B" class="st1">
		<path class="st2" d="M177.9,146H337c29.4,0,52.9,6.6,70.6,20c17.7,13.3,26.6,33.4,26.6,60.4c0,16.3-4,30.3-12.1,41.9
			c-8.1,11.6-19.6,20.7-34.7,27.1v0.9c20.2,4.3,35.5,13.7,45.9,28.3c10.4,14.7,15.6,33,15.6,55.2c0,12.7-2.3,24.6-6.9,35.6
			c-4.6,11.1-11.7,20.6-21.6,28.6s-22.3,14.3-37.6,19.1c-15.3,4.7-33.5,7.1-54.6,7.1H177.9L177.9,146L177.9,146z M235.2,281.7h93.6
			c13.8,0,25.2-3.8,34.4-11.6c9.2-7.8,13.8-18.9,13.8-33.4c0-16.3-4.1-27.9-12.4-34.5c-8.3-6.6-20.2-10-35.8-10h-93.6L235.2,281.7
			L235.2,281.7z M235.2,423.8h101.4c17.4,0,31-4.4,40.5-13.4c9.6-8.9,14.5-21.6,14.5-37.9c0-16.1-4.8-28.3-14.5-37
			s-23.1-12.9-40.5-12.9H235.2V423.8z"/>
	</g>
</g>
</svg>
