<?xml version="1.0" encoding="utf-8"?>
<!-- Generator: Adobe Illustrator 22.0.1, SVG Export Plug-In . SVG Version: 6.00 Build 0)  -->
<svg version="1.1" id="Layer_1" xmlns="http://www.w3.org/2000/svg" xmlns:xlink="http://www.w3.org/1999/xlink" x="0px" y="0px"
	 viewBox="0 0 100 100" style="enable-background:new 0 0 100 100;" xml:space="preserve">
<style type="text/css">
	.st0{fill:#8B8E98;}
	.st1{fill:#7E8189;}
	.st2{fill:#FAEFDE;}
	.st3{fill:#8D6C9F;}
</style>
<g id="surface1">
	<path class="st0" d="M95.5,50c0,25.2-20.4,45.6-45.6,45.6S4.4,75.2,4.4,50S24.8,4.4,50,4.4S95.5,24.8,95.5,50z"/>
	<path class="st1" d="M50,87.4c-20.7,0-37.4-16.8-37.4-37.4S29.3,12.6,50,12.6S87.4,29.3,87.4,50S70.7,87.4,50,87.4z"/>
	<path class="st2" d="M58.2,70.1c2.8,3,4.4,6.8,4.8,10.8v8.5c0,0.9,0.4,3.5,1.5,3.8L50,95.8l-14.6-2.6c1.2-0.3,1.6-2.9,1.6-3.8
		s0-1.5,0-5.3c-12.7,2.8-15.3-7-15.3-7c-2.1-5.3-5.1-6.7-5.1-6.7c-4.1-2.8,0.3-2.8,0.3-2.8c2.9,0.4,5.5,2.1,7,4.7
		c4.1,6.9,10.5,6.4,13,5.2c0.4-2.9,3.4-6.4,4.7-7.5C31.6,69,20.9,65.1,20.9,47.6c-0.1-4.5,1.6-8.9,4.7-12.3
		c-1.4-3.9-1.2-8.2,0.5-12.1c5.1-41.8,3.8-1.2,12.5,4.7c7.5-2,15.3-2,22.8,0c8.7-5.9,12.5-4.7,12.5-4.7c1.7,3.8,1.9,8.1,0.5,12.1
		c3.1,3.3,4.7,7.7,4.7,12.2C79,65.1,68.4,69,58.2,70.1z"/>
	<path class="st3" d="M50,2.8C27,2.8,7.3,19.4,3.5,42.1c-3.8,22.7,9.2,44.8,31,52.4c0.3,0.2,0.6,0.3,0.9,0.3
		c17.7,5.8,37.2,0.6,49.7-13.3c12.5-13.8,15.6-33.7,8.1-50.8S68.6,2.8,50,2.8z M38.1,92.3c0.3-0.9,0.5-1.9,0.5-2.8v-0.9
		c0-0.7,0-1.7,0-4.4c0-0.5-0.2-1-0.6-1.3c-0.4-0.3-0.9-0.4-1.4-0.3c-10.9,2.4-13.3-5.5-13.4-5.8v-0.2c-0.9-2.7-2.6-5.1-4.9-6.9
		c1.7,0.7,3.2,2,4.2,3.6c4.3,7.4,11.4,7.6,15.1,5.9c0.5-0.2,0.9-0.7,0.9-1.3c0.7-2.5,2.2-4.8,4.2-6.5c0.5-0.4,0.7-1.1,0.5-1.7
		c-0.2-0.6-0.7-1-1.4-1.1c-9.6-1.1-19.3-4.4-19.3-20.9c-0.1-4.1,1.5-8.1,4.3-11.1c0.5-0.4,0.6-1.1,0.4-1.7c-1.2-3.2-1.2-6.7,0-9.9
		c1.4,0,4.8,0.6,10.4,4.5c0.4,0.3,0.9,0.4,1.3,0.2c7.2-2,14.8-2,21.9,0c0.5,0.1,1,0,1.3-0.2c5.7-3.9,9.1-4.5,10.4-4.5
		c1.2,3.2,1.3,6.7,0.1,9.9c-0.2,0.6-0.1,1.2,0.3,1.7c2.8,3,4.3,7,4.2,11.1c0,16.5-9.8,19.8-19.3,20.9c-0.6,0.1-1.2,0.5-1.4,1.1
		c-0.2,0.6,0,1.3,0.5,1.7c2.4,2.7,3.9,6,4.2,9.6v8.5c0,1,0.2,1.9,0.5,2.8C54.1,94.5,45.9,94.5,38.1,92.3z M65,91.3
		c-0.2-0.6-0.3-1.2-0.3-1.8v-8.6c-0.2-3.4-1.3-6.8-3.3-9.6c9-1.5,19.3-6.2,19.3-23.7c0.1-4.6-1.5-9.1-4.5-12.6
		c1.1-4.1,0.9-8.4-0.8-12.3c-0.2-0.4-0.6-0.8-1-0.9c-0.5-0.1-4.6-1.2-13.3,4.5c-7.3-1.9-14.9-1.9-22.2,0c-8.7-5.7-12.9-4.6-13.3-4.5
		c-0.5,0.1-0.8,0.5-1,0.9C23,26.6,22.7,31,23.8,35c-2.9,3.5-4.5,8-4.5,12.6c0,17.3,10.1,22.1,19.1,23.7c-1.3,1.5-2.2,3.3-2.8,5.1
		c-2.3,0.6-7.1,0.7-10.2-4.8c-1.8-3.1-4.9-5.1-8.4-5.5c-0.9,0-3.1,0.1-3.6,1.8s1.5,3.3,2.4,3.9L16,72c0.1,0,2.5,1.3,4.2,5.7
		c0.4,1.2,3.6,9.9,15.2,8.4c0,1.3,0,1.9,0,2.4v0.9c0,0.6-0.1,1.2-0.3,1.8C15,84,3.1,63.4,6.8,42.4c3.7-21,21.9-36.3,43.3-36.3
		s39.6,15.3,43.3,36.3S85.1,84,65.1,91.3L65,91.3z"/>
	<path class="st3" d="M50,59.8c-0.9,0-1.6,0.7-1.6,1.6v3.3c0,0.9,0.7,1.6,1.6,1.6s1.6-0.7,1.6-1.6v-3.3C51.6,60.5,50.9,59.8,50,59.8
		z"/>
	<path class="st3" d="M57.5,63.9c0.2,0.9,1.1,1.4,2,1.1c0.9-0.2,1.4-1.1,1.1-2l-0.9-3.1c-0.3-0.8-1.1-1.3-2-1.1
		c-0.9,0.2-1.4,1.1-1.2,1.9L57.5,63.9z"/>
	<path class="st3" d="M34.9,55.7c-0.4-0.2-0.8-0.3-1.2-0.2c-0.4,0.1-0.8,0.4-1,0.8l-1.6,2.8c-0.4,0.8-0.1,1.7,0.6,2.2
		s1.7,0.2,2.2-0.5l1.6-2.8c0.2-0.4,0.3-0.8,0.2-1.2C35.6,56.3,35.3,55.9,34.9,55.7z"/>
	<path class="st3" d="M66.1,60.8c0.3,0.5,0.8,0.9,1.4,0.9c0.6,0,1.2-0.3,1.4-0.8c0.3-0.5,0.3-1.2-0.1-1.7l-1.6-2.8
		c-0.5-0.7-1.4-1-2.2-0.5c-0.8,0.4-1,1.4-0.6,2.2L66.1,60.8z"/>
	<path class="st3" d="M42.2,58.7c-0.9-0.2-1.8,0.3-2,1.2L39.4,63c-0.2,0.6,0,1.2,0.4,1.6c0.4,0.4,1,0.6,1.6,0.4
		c0.6-0.2,1-0.6,1.1-1.2l0.9-3.1C43.6,59.9,43.1,59,42.2,58.7z"/>
	<path class="st3" d="M66.8,15c-1.2-0.6-2.5-1.2-3.7-1.6c-0.8-0.3-1.7,0.2-2,1c-0.3,0.8,0.1,1.7,0.9,2.1c1.2,0.4,2.3,0.9,3.4,1.5
		c0.2,0.1,0.5,0.2,0.7,0.2c0.7,0,1.4-0.5,1.6-1.3C67.8,16.1,67.5,15.3,66.8,15L66.8,15z"/>
	<path class="st3" d="M55.9,11.4c-8.4-1.3-17,0.2-24.4,4.4c-0.6,0.4-1,1.1-0.8,1.8c0.2,0.7,0.8,1.2,1.6,1.2c0.3,0,0.6-0.1,0.8-0.2
		c6.8-3.8,14.6-5.2,22.3-4c0.9,0.1,1.7-0.5,1.9-1.4C57.5,12.4,56.8,11.5,55.9,11.4L55.9,11.4z"/>
</g>
</svg>
