<?xml version="1.0" encoding="utf-8"?>
<!-- Generator: Adobe Illustrator 22.0.1, SVG Export Plug-In . SVG Version: 6.00 Build 0)  -->
<svg version="1.1" id="Layer_1" xmlns="http://www.w3.org/2000/svg" xmlns:xlink="http://www.w3.org/1999/xlink" x="0px" y="0px"
	 viewBox="0 0 100 100" style="enable-background:new 0 0 100 100;" xml:space="preserve">
<style type="text/css">
	.st0{fill:#FF5722;}
	.st1{fill:#1C0802;}
</style>
<g id="surface1">
	<path class="st0" d="M4.6,14.7c0-5.6,4.5-10.1,10.1-10.1h70.7c5.6,0,10.1,4.5,10.1,10.1v70.7c0,5.6-4.5,10.1-10.1,10.1H14.7
		c-5.6,0-10.1-4.5-10.1-10.1V14.7z"/>
	<path class="st1" d="M12.1,12.1v75.7h75.7V12.1H12.1z M49.2,67.7l-1.9-7.3h-9.9l-1.9,7.3h-7.7L39,31.8h6.6L57,67.7H49.2z
		 M67.3,67.7h-7V41h7V67.7z M66.5,36.8c-0.7,0.7-1.6,1.1-2.8,1.1c-1.2,0-2.1-0.4-2.8-1.1c-0.7-0.7-1-1.6-1-2.7c0-1.1,0.3-2,1-2.7
		s1.6-1,2.8-1c1.1,0,2.1,0.3,2.8,1s1,1.6,1,2.7C67.6,35.2,67.2,36,66.5,36.8z"/>
	<path class="st1" d="M39,54.3h6.7l-3.4-12.8L39,54.3z"/>
</g>
</svg>
