<?xml version="1.0" encoding="utf-8"?>
<!-- Generator: Adobe Illustrator 22.0.1, SVG Export Plug-In . SVG Version: 6.00 Build 0)  -->
<svg version="1.1" id="Layer_1" xmlns="http://www.w3.org/2000/svg" xmlns:xlink="http://www.w3.org/1999/xlink" x="0px" y="0px"
	 viewBox="0 0 100 100" style="enable-background:new 0 0 100 100;" xml:space="preserve">
<style type="text/css">
	.st0{fill:#03A9F4;}
	.st1{fill:#020F16;}
</style>
<g id="surface1">
	<path class="st0" d="M4.6,14.7c0-5.6,4.5-10.1,10.1-10.1h70.7c5.6,0,10.1,4.5,10.1,10.1v70.7c0,5.6-4.5,10.1-10.1,10.1H14.7
		c-5.6,0-10.1-4.5-10.1-10.1V14.7z"/>
	<path class="st1" d="M39.9,37.8h-5V49h5c1.4,0,2.4-0.5,3.2-1.4c0.8-0.9,1.1-2.2,1.1-3.9c0-1.8-0.4-3.2-1.2-4.3
		C42.3,38.4,41.2,37.8,39.9,37.8z"/>
	<path class="st1" d="M12.1,12.1v75.7h75.7V12.1H12.1z M48.4,52c-2.1,2-5,3.1-8.7,3.1h-4.8v12.6h-7.2V31.8h12.2
		c3.5,0,6.4,1.1,8.5,3.3c2.1,2.2,3.2,5.1,3.2,8.6C51.5,47.2,50.5,50,48.4,52z M71.9,66c-1.8,1.4-4.2,2.2-7.1,2.2
		c-2,0-3.7-0.4-5.2-1.1c-1.5-0.8-2.7-1.8-3.5-3.2c-0.8-1.4-1.3-2.8-1.3-4.4h6.6c0,1.2,0.3,2.1,0.8,2.7s1.4,0.9,2.6,0.9
		c1.9,0,2.8-0.8,2.8-2.5c0-0.6-0.3-1.1-0.8-1.6c-0.6-0.5-1.8-1.2-3.8-2c-2.9-1.2-4.9-2.4-5.9-3.6c-1.1-1.3-1.6-2.8-1.6-4.7
		c0-2.3,0.8-4.3,2.5-5.8c1.7-1.5,3.9-2.3,6.7-2.3c2.9,0,5.3,0.8,7,2.3c1.8,1.5,2.6,3.5,2.6,6.1h-7c0-2.2-0.9-3.3-2.7-3.3
		c-0.7,0-1.4,0.2-1.8,0.7c-0.5,0.5-0.7,1.1-0.7,1.9c0,0.6,0.3,1.1,0.8,1.6c0.5,0.5,1.8,1.1,3.7,1.9c2.8,1.1,4.9,2.2,6,3.5
		c1.2,1.3,1.8,3,1.8,5C74.6,62.6,73.7,64.5,71.9,66z"/>
</g>
</svg>
