<?xml version="1.0" encoding="utf-8"?>
<!-- Generator: Adobe Illustrator 22.0.1, SVG Export Plug-In . SVG Version: 6.00 Build 0)  -->
<svg version="1.1" id="Layer_1" xmlns="http://www.w3.org/2000/svg" xmlns:xlink="http://www.w3.org/1999/xlink" x="0px" y="0px"
	 viewBox="0 0 100 100" style="enable-background:new 0 0 100 100;" xml:space="preserve">
<style type="text/css">
	.st0{fill:#039BE5;}
	.st1{fill:#0277BD;}
	.st2{fill:#29B6F6;}
	.st3{fill:#81D4FA;}
</style>
<g id="surface1">
	<path class="st0" d="M14.3,95.4c-0.7,0-1.4-0.1-2.1-0.3c-2-0.5-3.7-1.7-4.7-3.3c-0.7-1.1-1-2.3-1-3.5V11.7c0-3.9,3.4-7,7.6-7.1
		c1.4,0,2.7,0.3,3.9,0.9L94,44.6c3.3,1.7,4.4,5.5,2.6,8.5c-0.6,1-1.5,1.8-2.5,2.3c0,0,0,0,0,0L18.1,94.5
		C16.9,95.1,15.6,95.4,14.3,95.4z"/>
	<path class="st1" d="M6.6,45.9v42.5c0,1.2,0.3,2.4,1,3.5c1,1.6,2.7,2.8,4.7,3.3c0.7,0.2,1.4,0.3,2.1,0.3c1.3,0,2.6-0.3,3.8-0.9
		l41.4-21.4L6.6,45.9z"/>
	<path class="st2" d="M18.5,33.3v61l70.9-36.6L30,27.1c-1.2-0.6-2.5-0.9-3.9-0.9C21.9,26.3,18.5,29.5,18.5,33.3z"/>
	<path class="st0" d="M18.5,52v42.2l8.7-4.5l32.3-16.6L18.5,52z"/>
	<path class="st2" d="M56.2,67.3c-0.4,0-0.7,0-1.1-0.1c-1.1-0.3-2-0.9-2.6-1.9c-0.4-0.6-0.5-1.3-0.5-1.9V36.6c0-2.1,1.8-3.9,4.1-3.9
		c0.8,0,1.5,0.2,2.2,0.5l25.3,13.7c1.8,1,2.4,3.1,1.4,4.8c-0.3,0.6-0.8,1-1.4,1.4c0,0,0,0,0,0L58.3,66.8
		C57.6,67.1,56.9,67.3,56.2,67.3z"/>
	<path class="st3" d="M55.1,67.2c0.4,0.1,0.7,0.1,1.1,0.1c0.7,0,1.5-0.2,2.1-0.5L82,53.9L52,38.4v25c0,0.7,0.2,1.3,0.5,1.9
		C53.1,66.2,54,66.9,55.1,67.2z"/>
</g>
</svg>
