<?xml version="1.0" encoding="utf-8"?>
<!-- Generator: Adobe Illustrator 22.0.1, SVG Export Plug-In . SVG Version: 6.00 Build 0)  -->
<svg version="1.1" id="Layer_1" xmlns="http://www.w3.org/2000/svg" xmlns:xlink="http://www.w3.org/1999/xlink" x="0px" y="0px"
	 viewBox="0 0 100 100" style="enable-background:new 0 0 100 100;" xml:space="preserve">
<style type="text/css">
	.st0{fill:#FFFFFF;}
	.st1{fill:#01579B;}
</style>
<circle class="st0" cx="50" cy="50" r="44.9"/>
<path class="st1" d="M14,50c0,14.3,8.3,26.6,20.3,32.4L17.1,35.3C15.1,39.8,14,44.8,14,50z M74.3,48.2c0-4.4-2.4-7.5-3.8-9.9
	c-1.8-3-3.5-5.5-3.5-8.4c0-3.3,3.3-6.4,6.8-6.4c0.2,0,0.3,0,0.5,0C67.9,17.6,59.4,14,50,14c-12.1,0-22.8,6-29.4,15.2
	c0.5,0.2,0.7,0.1,1.4,0.1c3.8,0,9.6-0.5,9.6-0.5c1.9-0.1,2.2,2.7,0.2,3c0,0-1.9,0.2-4.1,0.3l13.3,40l7.9-23.6l-5.9-16.3
	c-1.9-0.1-3.8-0.3-3.8-0.3c-1.9-0.1-1.7-3.1,0.2-3c0,0,6,0.5,9.5,0.5c3.8,0,9.6-0.5,9.6-0.5c1.9-0.1,2.2,2.7,0.2,3
	c0,0-2,0.2-4.1,0.3L68,71.8l3.6-12C73.4,55.2,74.3,51.3,74.3,48.2z M50.6,53.1L39.8,84.5c3.2,1,6.6,1.5,10.2,1.5c4.2,0,8.2-0.7,12-2
	c-0.1-0.2-0.2-0.3-0.3-0.5L50.6,53.1z M81.6,32.7c0.2,1.1,0.2,2.4,0.2,3.7c0,3.7-0.7,7.8-2.7,12.9l-11,31.8C78.8,74.9,86,63.3,86,50
	C86,43.7,84.4,37.9,81.6,32.7z"/>
<path class="st1" d="M5,50c0,24.8,20.2,45,45,45c24.8,0,45-20.2,45-45S74.8,5,50,5S5,25.2,5,50z M9.5,50C9.5,27.7,27.7,9.5,50,9.5
	S90.5,27.7,90.5,50S72.3,90.5,50,90.5C27.7,90.5,9.5,72.3,9.5,50z"/>
</svg>
