<?xml version="1.0" encoding="utf-8"?>
<!-- Generator: Adobe Illustrator 22.0.1, SVG Export Plug-In . SVG Version: 6.00 Build 0)  -->
<svg version="1.1" id="Layer_1" xmlns="http://www.w3.org/2000/svg" xmlns:xlink="http://www.w3.org/1999/xlink" x="0px" y="0px"
	 viewBox="0 0 100 100" style="enable-background:new 0 0 100 100;" xml:space="preserve">
<style type="text/css">
	.st0{fill:#01579B;}
	.st1{fill:#FF6D00;}
</style>
<path class="st0" d="M73.8,48.4c-2.5-2-5.9-3.2-9.7-3.2c-3.7,0-7.1,1.2-9.7,3.2c-2.6,2-4.3,4.9-4.5,8.2c-0.2,3.3,1.2,6.5,3.8,8.8
	c2.6,2.3,6.3,3.8,10.4,3.8c4.1,0,7.8-1.5,10.4-3.8c2.5-2.3,4-5.4,3.8-8.8C78.1,53.3,76.4,50.4,73.8,48.4z"/>
<path class="st1" d="M97.6,55.9c-0.6-4-1.9-7.7-4.1-11.1c-1.9-3.1-4.4-5.9-7.4-8.2l0,0l-0.1,0c-0.1-0.1-0.1-0.1-0.2-0.2l-31-23
	c-1.9-1.5-4.6-1.2-6.1,0.7c-1.5,1.9-1.2,4.6,0.7,6.1l13,9.7H20.6c-3,0-5.4,2.5-5.4,5.4c0,3,2.5,5.4,5.4,5.4h15.6L4,68.3
	c-2.3,2-2.5,5.4-0.6,7.7c1.1,1.3,2.6,1.9,4.1,1.9c1.3,0,2.5-0.4,3.5-1.3l19.5-16.7c0,1.8-0.1,3.3-0.1,3.8c0,7.7,8.6,27.3,34.1,27.3
	C82.7,90.9,97.8,80,97.8,62C98,60,97.9,57.9,97.6,55.9z M83.8,62.9c-0.9,2.4-2.3,4.6-4.2,6.5c-3.9,4-9.5,6.2-15.4,6.2
	c-6,0-11.5-2.2-15.4-6.2c-1.9-1.9-3.3-4.1-4.2-6.5c-0.9-2.3-1.2-4.8-1-7.3c0.2-2.4,0.9-4.7,2.1-6.8c1.2-2.1,2.7-3.9,4.7-5.5
	c3.8-3.1,8.7-4.7,13.8-4.8c5.1,0,10,1.6,13.8,4.7c2,1.6,3.5,3.4,4.7,5.5c1.2,2.1,1.9,4.4,2.1,6.8C85,58.1,84.7,60.6,83.8,62.9z"/>
</svg>
