<?xml version="1.0" encoding="utf-8"?>
<!-- Generator: Adobe Illustrator 22.0.1, SVG Export Plug-In . SVG Version: 6.00 Build 0)  -->
<svg version="1.1" id="Layer_1" xmlns="http://www.w3.org/2000/svg" xmlns:xlink="http://www.w3.org/1999/xlink" x="0px" y="0px"
	 viewBox="0 0 100 100" style="enable-background:new 0 0 100 100;" xml:space="preserve">
<style type="text/css">
	.st0{fill:#0277BD;}
	.st1{fill:#039BE5;}
	.st2{fill:#FFFFFF;}
	.st3{fill:#EEEEEE;}
</style>
<g id="surface1">
	<path class="st0" d="M90.1,5.2H9.9L17,85.4l33,9.4l33-9.4L90.1,5.2z"/>
	<path class="st1" d="M50,12.3v75.2l26.4-7.5l5.9-67.7H50z"/>
	<path class="st2" d="M71.5,24.1H50v9.4h11.5l-0.7,9.4H50v9.4h10.4L59.7,63L50,66.3v9.9L68.6,70l1.7-27.1L71.5,24.1z"/>
	<path class="st3" d="M50,24.1v9.4H29l-0.7-9.4H50z M39.2,42.9l0.5,9.4H50v-9.4H39.2z M40.1,57.1h-9.4l0.7,13L50,76.2v-9.9L40.3,63
		L40.1,57.1z"/>
</g>
</svg>
