<?xml version="1.0" encoding="utf-8"?>
<!-- Generator: Adobe Illustrator 22.0.1, SVG Export Plug-In . SVG Version: 6.00 Build 0)  -->
<svg version="1.1" id="Layer_1" xmlns="http://www.w3.org/2000/svg" xmlns:xlink="http://www.w3.org/1999/xlink" x="0px" y="0px"
	 viewBox="0 0 100 100" style="enable-background:new 0 0 100 100;" xml:space="preserve">
<style type="text/css">
	.st0{fill:#F9E3AE;}
	.st1{fill:#F6D397;}
	.st2{fill:#FAEFDE;}
	.st3{fill:#8D6C9F;}
</style>
<g id="surface1">
	<path class="st0" d="M80.2,85.6l-28.6,7.8c-1.1,0.3-2.3,0.3-3.4,0l-27.1-7.8c-2.4-0.7-4.2-2.8-4.5-5.3L8.2,9.8C8.1,9,8.4,8.1,9,7.4
		c0.6-0.7,1.4-1.1,2.3-1.1h77.4c0.9,0,1.7,0.4,2.3,1c0.6,0.7,0.9,1.5,0.8,2.4l-7.1,70.4C84.5,82.8,82.7,84.9,80.2,85.6z"/>
	<path class="st1" d="M88.7,6.3H50v87.3c0.6,0,1.1-0.1,1.7-0.2l28.6-7.8c2.5-0.7,4.3-2.8,4.6-5.4l7-70.4C91.9,8.9,91.6,8,91,7.4
		C90.4,6.7,89.6,6.3,88.7,6.3z"/>
	<path class="st2" d="M73.4,25.1H26.8c-0.5,0-0.9,0.2-1.2,0.5c-0.3,0.3-0.4,0.8-0.4,1.2l3.4,25c0.1,0.8,0.8,1.4,1.6,1.4h30.7
		c0.5,0,0.9,0.2,1.2,0.5s0.4,0.8,0.4,1.3l-1.3,9.4C61,65,60.6,65.5,60,65.6l-9.5,3.1c-0.3,0.1-0.7,0.1-1,0l-8.3-3
		c-0.6-0.2-1-0.7-1-1.3l-0.5-3.6c-0.1-0.8-0.8-1.4-1.6-1.4h-6.3c-0.5,0-0.9,0.2-1.2,0.5c-0.3,0.3-0.4,0.8-0.4,1.2l1.3,10
		c0.1,0.6,0.5,1.1,1.1,1.3l16.8,5.5c0.3,0.1,0.6,0.1,1,0l18.2-5.6c0.6-0.2,1-0.7,1.1-1.3l2.3-17.9l0.9-7.6c0-0.4-0.1-0.9-0.4-1.2
		c-0.3-0.3-0.7-0.5-1.2-0.5h-33c-0.8,0-1.5-0.6-1.6-1.4L36,36.2c-0.1-0.4,0.1-0.9,0.4-1.2c0.3-0.3,0.7-0.5,1.2-0.5h35.3
		c0.8,0,1.5-0.6,1.6-1.4l0.7-6.3c0-0.5-0.1-0.9-0.4-1.2C74.3,25.2,73.9,25.1,73.4,25.1z"/>
	<path class="st3" d="M92.2,6.3c-0.9-1-2.1-1.6-3.5-1.6H11.3c-1.3,0-2.6,0.6-3.5,1.6c-0.9,1-1.3,2.3-1.2,3.7l8.5,70.5
		c0.4,3.1,2.6,5.7,5.6,6.6l27.1,7.8c1.4,0.4,2.8,0.4,4.2,0l28.5-7.8c3.1-0.9,5.4-3.5,5.7-6.8l7-70.4C93.5,8.6,93.1,7.3,92.2,6.3z
		 M83.2,80c-0.2,1.9-1.6,3.6-3.4,4.1l-28.5,7.8c-0.8,0.2-1.7,0.2-2.5,0l-27.1-7.8c-1.8-0.5-3.1-2.1-3.4-4l-7.6-62.9
		c0.1,0,0.2,0,0.3,0c0.9,0,1.6-0.7,1.6-1.6v-3.1c0-0.9-0.7-1.6-1.6-1.6c-0.3,0-0.7,0.1-1,0.3L9.8,9.7c-0.1-0.4,0.1-0.9,0.4-1.2
		c0.3-0.3,0.7-0.5,1.2-0.5h77.4c0.4,0,0.9,0.2,1.2,0.5c0.3,0.3,0.4,0.8,0.4,1.2l-0.2,1.8c-0.3-0.3-0.7-0.4-1-0.4
		c-0.9,0-1.6,0.7-1.6,1.6v3.1c0,0.9,0.7,1.6,1.6,1.6c0.2,0,0.3,0,0.5-0.1L83.2,80z"/>
	<path class="st3" d="M65.1,79.8l-3.1,1c-0.9,0.1-1.5,0.9-1.3,1.8c0.1,0.9,0.9,1.5,1.8,1.3c0.2,0,0.3,0,0.5,0l3.1-1
		c0.9-0.3,1.3-1.2,1.1-2C66.9,80,66,79.5,65.1,79.8z"/>
	<path class="st3" d="M55.8,82.8l-5.4,1.7c-0.3,0.1-0.6,0.1-0.9,0l-6.8-2c-0.8-0.3-1.7,0.2-1.9,1c-0.2,0.8,0.2,1.7,1.1,1.9l6.8,2.1
		c0.9,0.3,1.9,0.3,2.8,0l5.4-1.7c0.8-0.3,1.3-1.1,1-2S56.6,82.5,55.8,82.8L55.8,82.8z"/>
	<path class="st3" d="M73.4,23.5H26.8c-0.9,0-1.8,0.4-2.4,1.1c-0.6,0.7-0.9,1.6-0.8,2.5l3.4,25c0.2,1.6,1.6,2.7,3.1,2.7h30.7
		l-1.3,9.4L50,67.3l-8.3-2.9l-0.5-3.6c-0.2-1.6-1.6-2.7-3.1-2.7h-6.3c-0.9,0-1.8,0.4-2.4,1.1c-0.6,0.7-0.9,1.6-0.8,2.5l1.3,10.1
		c0.2,1.2,1,2.2,2.1,2.5L49,79.7c0.3,0.1,0.6,0.1,1,0.1c0.3,0,0.6,0,0.9-0.1L69.1,74c1.2-0.4,2-1.4,2.2-2.6l2.4-18l0.9-7.6
		c0.1-0.9-0.2-1.8-0.8-2.4c-0.6-0.7-1.4-1-2.3-1h-33L37.5,36h35.3c1.6,0,2.9-1.2,3.1-2.8l0.7-6.3c0.1-0.9-0.2-1.8-0.8-2.5
		S74.3,23.5,73.4,23.5z M72.7,32.9H37.5c-0.9,0-1.8,0.4-2.4,1.1c-0.6,0.7-0.9,1.6-0.8,2.5l0.8,6.3c0.2,1.6,1.6,2.7,3.1,2.7h33.1
		L70.5,53l-2.4,18L50,76.7l-16.8-5.6L31.9,61h6.3l0.5,3.6c0.2,1.2,0.9,2.1,2,2.5l8.3,2.9c0.7,0.2,1.4,0.2,2,0l9.5-3.1
		c1.1-0.4,2-1.3,2.1-2.5l1.3-9.4c0.1-0.9-0.1-1.8-0.7-2.5c-0.6-0.7-1.5-1.1-2.4-1.1H30.2l-3.4-24.9h46.6L72.7,32.9z"/>
	<path class="st3" d="M18.7,11c-0.9,0-1.6,0.7-1.6,1.6v3.1c0,0.9,0.7,1.6,1.6,1.6s1.6-0.7,1.6-1.6v-3.1C20.3,11.7,19.6,11,18.7,11z"
		/>
	<path class="st3" d="M26.5,17.3c0.9,0,1.6-0.7,1.6-1.6v-3.1c0-0.9-0.7-1.6-1.6-1.6S25,11.7,25,12.6v3.1
		C25,16.6,25.7,17.3,26.5,17.3z"/>
	<path class="st3" d="M34.4,17.3c0.9,0,1.6-0.7,1.6-1.6v-3.1c0-0.9-0.7-1.6-1.6-1.6s-1.6,0.7-1.6,1.6v3.1
		C32.8,16.6,33.5,17.3,34.4,17.3z"/>
	<path class="st3" d="M42.2,17.3c0.9,0,1.6-0.7,1.6-1.6v-3.1c0-0.9-0.7-1.6-1.6-1.6s-1.6,0.7-1.6,1.6v3.1
		C40.6,16.6,41.3,17.3,42.2,17.3z"/>
	<path class="st3" d="M50,17.3c0.9,0,1.6-0.7,1.6-1.6v-3.1c0-0.9-0.7-1.6-1.6-1.6s-1.6,0.7-1.6,1.6v3.1C48.4,16.6,49.1,17.3,50,17.3
		z"/>
	<path class="st3" d="M57.8,17.3c0.9,0,1.6-0.7,1.6-1.6v-3.1c0-0.9-0.7-1.6-1.6-1.6s-1.6,0.7-1.6,1.6v3.1
		C56.2,16.6,56.9,17.3,57.8,17.3z"/>
	<path class="st3" d="M65.6,17.3c0.9,0,1.6-0.7,1.6-1.6v-3.1c0-0.9-0.7-1.6-1.6-1.6S64,11.7,64,12.6v3.1
		C64,16.6,64.7,17.3,65.6,17.3z"/>
	<path class="st3" d="M73.4,17.3c0.9,0,1.6-0.7,1.6-1.6v-3.1c0-0.9-0.7-1.6-1.6-1.6s-1.6,0.7-1.6,1.6v3.1
		C71.9,16.6,72.6,17.3,73.4,17.3z"/>
	<path class="st3" d="M81.2,11c-0.9,0-1.6,0.7-1.6,1.6v3.1c0,0.9,0.7,1.6,1.6,1.6s1.6-0.7,1.6-1.6v-3.1C82.8,11.7,82.1,11,81.2,11z"
		/>
	<path class="st2" d="M78.9,34.5l1.9,3.5l3.5,1.9l-3.5,1.9l-1.9,3.5L77,41.9l-3.5-1.9L77,38L78.9,34.5z"/>
	<path class="st2" d="M74.1,72l1.3,2.4l2.5,1.3l-2.5,1.3l-1.3,2.5l-1.3-2.5l-2.4-1.3l2.4-1.3L74.1,72z"/>
	<path class="st2" d="M19.7,53.2l0.9,1.7l1.7,0.9l-1.7,0.9l-0.9,1.7l-0.9-1.7l-1.7-0.9l1.7-0.9L19.7,53.2z"/>
</g>
</svg>
